<svg width="32" height="32" viewBox="0 0 32 32" fill="none" xmlns="http://www.w3.org/2000/svg">
<path d="M28.6582 24.6162L23.79 19.748C23.5703 19.5283 23.2725 19.4062 22.96 19.4062H22.1641C23.5117 17.6826 24.3125 15.5146 24.3125 13.1562C24.3125 7.5459 19.7666 3 14.1562 3C8.5459 3 4 7.5459 4 13.1562C4 18.7666 8.5459 23.3125 14.1562 23.3125C16.5146 23.3125 18.6826 22.5117 20.4062 21.1641V21.96C20.4062 22.2725 20.5283 22.5703 20.748 22.79L25.6162 27.6582C26.0752 28.1172 26.8174 28.1172 27.2715 27.6582L28.6533 26.2764C29.1123 25.8174 29.1123 25.0752 28.6582 24.6162ZM14.1562 19.4062C10.7041 19.4062 7.90625 16.6133 7.90625 13.1562C7.90625 9.7041 10.6992 6.90625 14.1562 6.90625C17.6084 6.90625 20.4062 9.69922 20.4062 13.1562C20.4062 16.6084 17.6133 19.4062 14.1562 19.4062Z" fill="white"/>
</svg>
