<svg width="32" height="32" viewBox="0 0 32 32" fill="none" xmlns="http://www.w3.org/2000/svg">
<path d="M26.875 11.2988V10.2588L25.4834 9.8291L25.376 9.32129L26.3574 8.31055L25.8496 7.36328L24.4336 7.72949L24.082 7.36328L24.4482 5.98633L23.5156 5.41992L22.4756 6.44531L21.9531 6.28906L21.6113 5H20.5078L20.2051 6.28906L19.6143 6.44531L18.6523 5.41992L17.7051 5.95703L18.1006 7.30957L17.7051 7.71973L16.3135 7.35352L15.7764 8.28613L16.7871 9.31152L16.6455 9.81934L15.2539 10.2002L15.2393 11.2598L16.6455 11.626L16.7627 12.2168L15.7812 13.1885L16.2891 14.0918L17.7344 13.7256L18.0859 14.1455L17.6904 15.459L18.6621 16.0254L19.6094 15.0293L20.1758 15.1709L20.5029 16.5625L21.6064 16.5771L21.9336 15.1709L22.5 15L23.5107 16.0547L24.5068 15.4639L24.0771 14.0967L24.458 13.7012L25.8643 14.1309L26.3672 13.1494L25.3467 12.2314L25.4541 11.6406L26.875 11.2988ZM21.0547 13.5059C19.5264 13.5059 18.2812 12.2656 18.2812 10.7324C18.2812 9.19922 19.5215 7.95898 21.0547 7.95898C22.5879 7.95898 23.8281 9.19922 23.8281 10.7324C23.8281 12.2705 22.5879 13.5059 21.0547 13.5059ZM24.585 14.3066L26.875 15.0146V16.9629L24.1846 17.6172L23.9844 18.7256L25.8838 20.4492L24.9463 22.2998L22.3096 21.4844L21.5967 22.2266L22.4121 24.79L20.542 25.8984L18.6426 23.9209L17.583 24.2432L16.9678 26.8799L14.8975 26.8555L14.2822 24.2383L13.2227 23.9648L11.4453 25.8398L9.61914 24.7803L10.3613 22.3145L9.69238 21.5283L6.98242 22.2168L6.02051 20.5176L7.87109 18.6914L7.63672 17.5781L5 16.8896L5.02441 14.8926L7.63672 14.1748L7.91504 13.2129L6.01562 11.2891L7.02637 9.54102L9.64355 10.2295L10.3857 9.46289L9.64355 6.92383L11.4209 5.91309L13.2178 7.83691L14.3262 7.53906L14.8926 5H16.9629L17.5293 7.24121L16.4258 6.95312L16.1182 6.87012L15.957 7.14844L15.4199 8.08105L15.2588 8.35449L15.4834 8.5791L16.3232 9.42871L16.3086 9.47754L15.1465 9.79492L14.8438 9.87793L14.8389 10.1904L14.8291 10.8203C12.5098 11.3281 10.7617 13.3984 10.7617 15.874C10.7617 18.7207 13.0713 21.0352 15.9229 21.0352C18.3887 21.0352 20.4492 19.3066 20.9619 16.9922L21.6064 17.002L21.9434 17.0068L22.0215 16.6797L22.2949 15.5078L22.3877 15.4785L23.2227 16.3477L23.4521 16.5869L23.7354 16.4209L24.7314 15.8301L25.0146 15.6592L24.917 15.3418L24.585 14.3066Z" fill="white"/>
</svg>
